<?xml version="1.0" encoding="utf-8"?>
<!-- Generator: Adobe Illustrator 21.0.0, SVG Export Plug-In . SVG Version: 6.00 Build 0)  -->
<svg version="1.1" id="Layer_1" xmlns="http://www.w3.org/2000/svg" xmlns:xlink="http://www.w3.org/1999/xlink" x="0px" y="0px"
	 viewBox="0 0 61 61" style="enable-background:new 0 0 61 61;" xml:space="preserve">
<style type="text/css">
	.st0{fill:#455A64;stroke:#424242;stroke-linecap:round;stroke-linejoin:round;stroke-miterlimit:10;}
	.st1{fill:none;stroke:#546E7A;stroke-linecap:round;stroke-linejoin:round;stroke-miterlimit:10;}
	.st2{fill:#546E7A;stroke:#424242;stroke-linecap:round;stroke-linejoin:round;stroke-miterlimit:10;}
	.st3{fill:none;stroke:#78909C;stroke-linecap:round;stroke-linejoin:round;stroke-miterlimit:10;}
	.st4{fill:none;stroke:#455A64;stroke-linecap:round;stroke-linejoin:round;stroke-miterlimit:10;}
	.st5{fill:#FFA726;stroke:#424242;stroke-linecap:round;stroke-linejoin:round;stroke-miterlimit:10;}
	.st6{fill:none;stroke:#FB8C00;stroke-linecap:round;stroke-linejoin:round;stroke-miterlimit:10;}
	.st7{fill:none;stroke:#FFCC80;stroke-linecap:round;stroke-linejoin:round;stroke-miterlimit:10;}
	.st8{fill:#CFD8DC;stroke:#424242;stroke-linecap:round;stroke-linejoin:round;stroke-miterlimit:10;}
	.st9{fill:none;stroke:#ECEFF1;stroke-linecap:round;stroke-linejoin:round;stroke-miterlimit:10;}
	.st10{fill:none;stroke:#B0BEC5;stroke-linecap:round;stroke-linejoin:round;stroke-miterlimit:10;}
	.st11{fill:none;stroke:#424242;stroke-linecap:round;stroke-linejoin:round;stroke-miterlimit:10;}
	.st12{fill:#EC407A;stroke:#424242;stroke-linecap:round;stroke-linejoin:round;stroke-miterlimit:10;}
	.st13{fill:none;stroke:#F48FB1;stroke-linecap:round;stroke-linejoin:round;stroke-miterlimit:10;}
	.st14{fill:none;stroke:#D81B60;stroke-linecap:round;stroke-linejoin:round;stroke-miterlimit:10;}
	.st15{fill:#ECEFF1;stroke:#424242;stroke-linecap:round;stroke-linejoin:round;stroke-miterlimit:10;}
	.st16{fill:#26C6DA;stroke:#424242;stroke-linecap:round;stroke-linejoin:round;stroke-miterlimit:10;}
	.st17{fill:none;stroke:#00ACC1;stroke-linecap:round;stroke-linejoin:round;stroke-miterlimit:10;}
	.st18{fill:none;stroke:#80DEEA;stroke-linecap:round;stroke-linejoin:round;stroke-miterlimit:10;}
	.st19{fill:#B0BEC5;stroke:#424242;stroke-linecap:round;stroke-linejoin:round;stroke-miterlimit:10;}
	.st20{fill:none;stroke:#CFD8DC;stroke-linecap:round;stroke-linejoin:round;stroke-miterlimit:10;}
	.st21{fill:#E0E0E0;stroke:#424242;stroke-linecap:round;stroke-linejoin:round;stroke-miterlimit:10;}
	.st22{fill:#F57F17;stroke:#424242;stroke-linecap:round;stroke-linejoin:round;stroke-miterlimit:10;}
	.st23{fill:none;stroke:#F57F17;stroke-linecap:round;stroke-linejoin:round;stroke-miterlimit:10;}
	.st24{fill:#FB8C00;stroke:#424242;stroke-miterlimit:10;}
	.st25{fill:none;stroke:#0097A7;stroke-linecap:round;stroke-linejoin:round;stroke-miterlimit:10;}
	.st26{fill:#26C6DA;stroke:#0097A7;stroke-linecap:round;stroke-linejoin:round;stroke-miterlimit:10;}
	.st27{fill:none;stroke:#90A4AE;stroke-linecap:round;stroke-linejoin:round;stroke-miterlimit:10;}
	.st28{fill:#CFD8DC;}
	.st29{fill:none;stroke:#424242;stroke-linecap:round;stroke-linejoin:round;}
	.st30{fill:none;stroke:#424242;stroke-linecap:round;stroke-linejoin:round;stroke-dasharray:4.0714,4.0714;}
	.st31{fill:#90A4AE;stroke:#424242;stroke-linecap:round;stroke-linejoin:round;stroke-miterlimit:10;}
	.st32{fill:none;stroke:#78909C;stroke-linecap:round;stroke-miterlimit:10;}
	.st33{fill:none;stroke:#455A64;stroke-linecap:round;stroke-miterlimit:10;}
	.st34{fill:#78909C;stroke:#424242;stroke-linecap:round;stroke-linejoin:round;stroke-miterlimit:10;}
	.st35{fill:none;stroke:#546E7A;stroke-linecap:round;stroke-miterlimit:10;}
	.st36{fill:none;stroke:#FFA726;stroke-linecap:round;stroke-linejoin:round;stroke-miterlimit:10;}
	.st37{fill:#4DD0E1;stroke:#424242;stroke-linecap:round;stroke-linejoin:round;stroke-miterlimit:10;}
	.st38{fill:#00ACC1;stroke:#424242;stroke-linecap:round;stroke-linejoin:round;stroke-miterlimit:10;}
	.st39{fill:#D81B60;stroke:#424242;stroke-linecap:round;stroke-linejoin:round;stroke-miterlimit:10;}
	.st40{fill:none;stroke:#C2185B;stroke-linecap:round;stroke-linejoin:round;stroke-miterlimit:10;}
	.st41{fill:#FB8C00;stroke:#424242;stroke-linecap:round;stroke-linejoin:round;stroke-miterlimit:10;}
	.st42{fill:none;stroke:#37474F;stroke-linecap:round;stroke-linejoin:round;stroke-miterlimit:10;}
	.st43{fill:#B0BEC5;stroke:#424242;stroke-miterlimit:10;}
	.st44{fill:#37474F;stroke:#424242;stroke-linecap:round;stroke-linejoin:round;stroke-miterlimit:10;}
	.st45{fill:#F5F5F5;stroke:#424242;stroke-linecap:round;stroke-linejoin:round;stroke-miterlimit:10;}
	.st46{fill:none;stroke:#FAFAFA;stroke-linecap:round;stroke-linejoin:round;stroke-miterlimit:10;}
	.st47{fill:#F06292;stroke:#424242;stroke-linecap:round;stroke-linejoin:round;stroke-miterlimit:10;}
	.st48{fill:#F48FB1;stroke:#424242;stroke-linecap:round;stroke-linejoin:round;stroke-miterlimit:10;}
</style>
<g id="Movie_Staff">
	<path class="st0" d="M35.5,60.5h-33v-11c0-6.6,5.4-12,12-12h9c6.6,0,12,5.4,12,12V60.5z"/>
	<path class="st1" d="M4.5,58.5v-9c0-5.5,4.5-10,10-10"/>
	<circle class="st8" cx="9.8" cy="21.5" r="4"/>
	<circle class="st8" cx="36.2" cy="21.5" r="4"/>
	<path class="st2" d="M43.5,60.5h-35v-11c0-6.6,5.4-12,12-12h11c6.6,0,12,5.4,12,12V60.5z"/>
	<path class="st8" d="M24.2,37.5h-2.5c-6.6,0-12-5.4-12-12v-14h26.5v14C36.2,32.1,30.9,37.5,24.2,37.5z"/>
	<path class="st9" d="M21.8,35.5c-5.5,0-10-4.5-10-10v-8"/>
	<g>
		<path class="st0" d="M34.8,15.5h-25v-5c0-5.5,4.5-10,10-10h5c5.5,0,10,4.5,10,10V15.5z"/>
		<path class="st2" d="M36.2,15.5h-23v-5c0-5.5,4.5-10,10-10h3c5.5,0,10,4.5,10,10V15.5z"/>
		<path class="st3" d="M15.2,13.5v-3c0-4.4,3.6-8,8-8"/>
		<path class="st2" d="M39.5,9H26.2c-1.9,0-3.8,0.6-5.4,1.6l-7.5,4.9h23l4.3-2.8C42.3,11.6,41.5,9,39.5,9z"/>
	</g>
	<g>
		
			<rect x="27.9" y="34.5" transform="matrix(-0.9659 0.2588 -0.2588 -0.9659 91.4189 61.9123)" class="st0" width="27.5" height="5"/>
		<rect x="29" y="42.4" class="st24" width="27.5" height="18.1"/>
		<rect x="29" y="42.4" class="st0" width="27.5" height="5"/>
		<circle class="st0" cx="29" cy="42.4" r="2.5"/>
		<g>
			<g>
				
					<rect x="29.8" y="34" transform="matrix(-0.9659 0.2588 -0.2588 -0.9659 94.9579 60.4464)" class="st2" width="27.5" height="5"/>
				<polygon class="st8" points="44.1,33.7 48.9,32.4 52.6,36.6 47.8,37.9 				"/>
				<polygon class="st8" points="33.8,36.5 38.6,35.2 42.3,39.4 37.5,40.7 				"/>
			</g>
			<rect x="31" y="42.4" class="st5" width="27.5" height="18.1"/>
			<rect x="31" y="42.4" class="st2" width="27.5" height="5"/>
			<circle class="st2" cx="31" cy="42.4" r="2.5"/>
			<polygon class="st8" points="43.5,42.4 38.5,42.4 36,47.4 41,47.4 			"/>
			<polygon class="st8" points="54.1,42.4 49.1,42.4 46.6,47.4 51.6,47.4 			"/>
			<path class="st7" d="M33,58.5v-9.1"/>
			<path class="st6" d="M56.5,58.5v-9.1"/>
		</g>
	</g>
	<polyline class="st2" points="21,52.5 29,52.5 29,60.5 8.5,60.5 8.5,52.5 	"/>
	<path class="st8" d="M36,60.5h-7v-8h7c0.6,0,1,0.4,1,1v6C37,60.1,36.6,60.5,36,60.5z"/>
	<path class="st15" d="M30.4,25.5c0,4.1-3.4,7.5-7.5,7.5s-7.5-3.4-7.5-7.5H30.4z"/>
	<path class="st3" d="M10.5,58.5v-9c0-5.5,4.5-10,10-10"/>
</g>
</svg>
